<svg xmlns="http://www.w3.org/2000/svg" width="194.941" height="221.932" viewBox="0 0 194.941 221.932"><g transform="translate(-700 -145)"><g transform="translate(887 154) rotate(90)" fill="#fff"><path d="M 153.4609527587891 177.5 L 51.53903961181641 177.5 L 0.5769622325897217 89 L 51.53903961181641 0.5 L 153.4609527587891 0.5 L 204.4230346679688 89 L 153.4609527587891 177.5 Z" stroke="none"/><path d="M 51.828125 1 L 1.153945922851562 89 L 51.82809448242188 177 L 153.1719055175781 177 L 203.8460540771484 89 L 153.1719055175781 1 L 51.828125 1 M 51.25003051757812 0 L 153.75 0 L 205 89 L 153.75 178 L 51.25 178 L 0 89 L 51.25003051757812 0 Z" stroke="none" fill="#707070"/></g><path d="M-1098.362-537.205l87.236,50.365v100.732l-87.236,50.365-87.237-50.365V-486.84l87.237-50.365m0-10.236a10.225,10.225,0,0,0-5.118,1.371l-87.237,50.366a10.234,10.234,0,0,0-5.117,8.864v100.732a10.236,10.236,0,0,0,5.117,8.864l87.237,50.365a10.225,10.225,0,0,0,5.118,1.371,10.224,10.224,0,0,0,5.117-1.371l87.236-50.365a10.235,10.235,0,0,0,5.118-8.864V-486.84a10.233,10.233,0,0,0-5.118-8.864l-87.236-50.366a10.224,10.224,0,0,0-5.117-1.371Z" transform="translate(1895.833 692.441)" fill="#e8e8e8"/></g></svg>